<svg id="visual" viewBox="0 0 900 600" width="900" height="600" xmlns="http://www.w3.org/2000/svg" xmlns:xlink="http://www.w3.org/1999/xlink" version="1.1"><rect x="0" y="0" width="900" height="600" fill="#4854a9"></rect><defs><linearGradient id="grad1_0" x1="33.3%" y1="100%" x2="100%" y2="0%"><stop offset="20%" stop-color="#140d8c" stop-opacity="1"></stop><stop offset="80%" stop-color="#140d8c" stop-opacity="1"></stop></linearGradient></defs><defs><linearGradient id="grad1_1" x1="33.3%" y1="100%" x2="100%" y2="0%"><stop offset="20%" stop-color="#140d8c" stop-opacity="1"></stop><stop offset="80%" stop-color="#212395" stop-opacity="1"></stop></linearGradient></defs><defs><linearGradient id="grad1_2" x1="33.3%" y1="100%" x2="100%" y2="0%"><stop offset="20%" stop-color="#2e349c" stop-opacity="1"></stop><stop offset="80%" stop-color="#212395" stop-opacity="1"></stop></linearGradient></defs><defs><linearGradient id="grad1_3" x1="33.3%" y1="100%" x2="100%" y2="0%"><stop offset="20%" stop-color="#2e349c" stop-opacity="1"></stop><stop offset="80%" stop-color="#3b44a3" stop-opacity="1"></stop></linearGradient></defs><defs><linearGradient id="grad1_4" x1="33.3%" y1="100%" x2="100%" y2="0%"><stop offset="20%" stop-color="#4854a9" stop-opacity="1"></stop><stop offset="80%" stop-color="#3b44a3" stop-opacity="1"></stop></linearGradient></defs><defs><linearGradient id="grad2_0" x1="0%" y1="100%" x2="66.7%" y2="0%"><stop offset="20%" stop-color="#140d8c" stop-opacity="1"></stop><stop offset="80%" stop-color="#140d8c" stop-opacity="1"></stop></linearGradient></defs><defs><linearGradient id="grad2_1" x1="0%" y1="100%" x2="66.7%" y2="0%"><stop offset="20%" stop-color="#212395" stop-opacity="1"></stop><stop offset="80%" stop-color="#140d8c" stop-opacity="1"></stop></linearGradient></defs><defs><linearGradient id="grad2_2" x1="0%" y1="100%" x2="66.7%" y2="0%"><stop offset="20%" stop-color="#212395" stop-opacity="1"></stop><stop offset="80%" stop-color="#2e349c" stop-opacity="1"></stop></linearGradient></defs><defs><linearGradient id="grad2_3" x1="0%" y1="100%" x2="66.7%" y2="0%"><stop offset="20%" stop-color="#3b44a3" stop-opacity="1"></stop><stop offset="80%" stop-color="#2e349c" stop-opacity="1"></stop></linearGradient></defs><defs><linearGradient id="grad2_4" x1="0%" y1="100%" x2="66.7%" y2="0%"><stop offset="20%" stop-color="#3b44a3" stop-opacity="1"></stop><stop offset="80%" stop-color="#4854a9" stop-opacity="1"></stop></linearGradient></defs><g transform="translate(900, 600)"><path d="M-540.8 0C-528.8 -69.8 -516.8 -139.7 -490.6 -203.2C-464.3 -266.7 -423.8 -323.9 -375.5 -375.5C-327.1 -427.1 -270.9 -473 -207 -499.7C-143.1 -526.3 -71.5 -533.6 0 -540.8L0 0Z" fill="#414ca6"></path><path d="M-432.7 0C-423.1 -55.9 -413.5 -111.8 -392.5 -162.6C-371.5 -213.4 -339.1 -259.1 -300.4 -300.4C-261.7 -341.6 -216.7 -378.4 -165.6 -399.7C-114.5 -421 -57.2 -426.8 0 -432.7L0 0Z" fill="#343ca0"></path><path d="M-324.5 0C-317.3 -41.9 -310.1 -83.8 -294.3 -121.9C-278.6 -160 -254.3 -194.3 -225.3 -225.3C-196.3 -256.2 -162.5 -283.8 -124.2 -299.8C-85.8 -315.8 -42.9 -320.1 0 -324.5L0 0Z" fill="#272c98"></path><path d="M-216.3 0C-211.5 -27.9 -206.7 -55.9 -196.2 -81.3C-185.7 -106.7 -169.5 -129.6 -150.2 -150.2C-130.8 -170.8 -108.3 -189.2 -82.8 -199.9C-57.2 -210.5 -28.6 -213.4 0 -216.3L0 0Z" fill="#1b1990"></path><path d="M-108.2 0C-105.8 -14 -103.4 -27.9 -98.1 -40.6C-92.9 -53.3 -84.8 -64.8 -75.1 -75.1C-65.4 -85.4 -54.2 -94.6 -41.4 -99.9C-28.6 -105.3 -14.3 -106.7 0 -108.2L0 0Z" fill="#140d8c"></path></g><g transform="translate(0, 0)"><path d="M540.8 0C518.8 64.9 496.8 129.8 474 196.3C451.1 262.8 427.4 330.9 382.4 382.4C337.5 433.9 271.3 468.8 204 492.4C136.7 516.1 68.3 528.4 0 540.8L0 0Z" fill="#414ca6"></path><path d="M432.7 0C415.1 51.9 397.4 103.8 379.2 157.1C360.9 210.3 341.9 264.7 305.9 305.9C270 347.1 217 375 163.2 393.9C109.4 412.8 54.7 422.8 0 432.7L0 0Z" fill="#343ca0"></path><path d="M324.5 0C311.3 38.9 298.1 77.9 284.4 117.8C270.7 157.7 256.4 198.6 229.5 229.5C202.5 260.4 162.8 281.3 122.4 295.5C82 309.6 41 317.1 0 324.5L0 0Z" fill="#272c98"></path><path d="M216.3 0C207.5 26 198.7 51.9 189.6 78.5C180.4 105.1 171 132.4 153 153C135 173.6 108.5 187.5 81.6 197C54.7 206.4 27.3 211.4 0 216.3L0 0Z" fill="#1b1990"></path><path d="M108.2 0C103.8 13 99.4 26 94.8 39.3C90.2 52.6 85.5 66.2 76.5 76.5C67.5 86.8 54.3 93.8 40.8 98.5C27.3 103.2 13.7 105.7 0 108.2L0 0Z" fill="#140d8c"></path></g></svg>