<svg id="visual" viewBox="0 0 960 540" width="960" height="540" xmlns="http://www.w3.org/2000/svg" xmlns:xlink="http://www.w3.org/1999/xlink" version="1.1"><rect x="0" y="0" width="960" height="540" fill="#001220"></rect><path d="M0 323L26.7 325.3C53.3 327.7 106.7 332.3 160 337.7C213.3 343 266.7 349 320 348.7C373.3 348.3 426.7 341.7 480 336.2C533.3 330.7 586.7 326.3 640 324.7C693.3 323 746.7 324 800 328.5C853.3 333 906.7 341 933.3 345L960 349L960 541L933.3 541C906.7 541 853.3 541 800 541C746.7 541 693.3 541 640 541C586.7 541 533.3 541 480 541C426.7 541 373.3 541 320 541C266.7 541 213.3 541 160 541C106.7 541 53.3 541 26.7 541L0 541Z" fill="#c62368"></path><path d="M0 412L26.7 412.8C53.3 413.7 106.7 415.3 160 413.3C213.3 411.3 266.7 405.7 320 407.5C373.3 409.3 426.7 418.7 480 421.2C533.3 423.7 586.7 419.3 640 416.8C693.3 414.3 746.7 413.7 800 413.3C853.3 413 906.7 413 933.3 413L960 413L960 541L933.3 541C906.7 541 853.3 541 800 541C746.7 541 693.3 541 640 541C586.7 541 533.3 541 480 541C426.7 541 373.3 541 320 541C266.7 541 213.3 541 160 541C106.7 541 53.3 541 26.7 541L0 541Z" fill="#e34c67"></path><path d="M0 458L26.7 462.2C53.3 466.3 106.7 474.7 160 478.7C213.3 482.7 266.7 482.3 320 481C373.3 479.7 426.7 477.3 480 473.2C533.3 469 586.7 463 640 464.2C693.3 465.3 746.7 473.7 800 478.8C853.3 484 906.7 486 933.3 487L960 488L960 541L933.3 541C906.7 541 853.3 541 800 541C746.7 541 693.3 541 640 541C586.7 541 533.3 541 480 541C426.7 541 373.3 541 320 541C266.7 541 213.3 541 160 541C106.7 541 53.3 541 26.7 541L0 541Z" fill="#fa7268"></path></svg>