<svg id="visual" viewBox="0 0 900 600" width="900" height="600" xmlns="http://www.w3.org/2000/svg" xmlns:xlink="http://www.w3.org/1999/xlink" version="1.1"><g stroke-width="1" stroke-linejoin="bevel"><path d="M384.7 252L384.7 361L512.3 362Z" fill="#277297" stroke="#277297"></path><path d="M512.3 362L518.3 223L384.7 252Z" fill="#246688" stroke="#246688"></path><path d="M399.7 492L523.3 483L512.3 362Z" fill="#00101c" stroke="#00101c"></path><path d="M512.3 362L641.9 247L518.3 223Z" fill="#00101c" stroke="#00101c"></path><path d="M384.7 361L399.7 492L512.3 362Z" fill="#246688" stroke="#246688"></path><path d="M650.9 137L525.3 124L518.3 223Z" fill="#297ea6" stroke="#297ea6"></path><path d="M518.3 223L379.7 102L384.7 252Z" fill="#205a7a" stroke="#205a7a"></path><path d="M661.9 354L641.9 247L512.3 362Z" fill="#112e42" stroke="#112e42"></path><path d="M525.3 124L379.7 102L518.3 223Z" fill="#277297" stroke="#277297"></path><path d="M384.7 252L245.1 379L384.7 361Z" fill="#19435d" stroke="#19435d"></path><path d="M247.1 225L245.1 379L384.7 252Z" fill="#00101c" stroke="#00101c"></path><path d="M384.7 361L265.1 474L399.7 492Z" fill="#15384f" stroke="#15384f"></path><path d="M379.7 102L247.1 225L384.7 252Z" fill="#0c2435" stroke="#0c2435"></path><path d="M523.3 483L661.9 354L512.3 362Z" fill="#277297" stroke="#277297"></path><path d="M245.1 379L265.1 474L384.7 361Z" fill="#00101c" stroke="#00101c"></path><path d="M641.9 247L650.9 137L518.3 223Z" fill="#00101c" stroke="#00101c"></path><path d="M517.3 0L385.7 0L379.7 102Z" fill="#1d4e6b" stroke="#1d4e6b"></path><path d="M761.4 256L650.9 137L641.9 247Z" fill="#297ea6" stroke="#297ea6"></path><path d="M379.7 102L242.1 139L247.1 225Z" fill="#081a28" stroke="#081a28"></path><path d="M247.1 225L136.6 356L245.1 379Z" fill="#297ea6" stroke="#297ea6"></path><path d="M521.3 600L655.9 499L523.3 483Z" fill="#0c2435" stroke="#0c2435"></path><path d="M523.3 483L655.9 499L661.9 354Z" fill="#15384f" stroke="#15384f"></path><path d="M270.1 600L384.7 600L399.7 492Z" fill="#205a7a" stroke="#205a7a"></path><path d="M399.7 492L521.3 600L523.3 483Z" fill="#00101c" stroke="#00101c"></path><path d="M384.7 600L521.3 600L399.7 492Z" fill="#297ea6" stroke="#297ea6"></path><path d="M655.9 499L751.4 366L661.9 354Z" fill="#246688" stroke="#246688"></path><path d="M661.9 354L761.4 256L641.9 247Z" fill="#277297" stroke="#277297"></path><path d="M517.3 0L379.7 102L525.3 124Z" fill="#1d4e6b" stroke="#1d4e6b"></path><path d="M379.7 102L238.1 0L242.1 139Z" fill="#246688" stroke="#246688"></path><path d="M647.9 0L517.3 0L525.3 124Z" fill="#081a28" stroke="#081a28"></path><path d="M245.1 379L113.6 463L265.1 474Z" fill="#15384f" stroke="#15384f"></path><path d="M265.1 474L270.1 600L399.7 492Z" fill="#081a28" stroke="#081a28"></path><path d="M120.6 224L136.6 356L247.1 225Z" fill="#277297" stroke="#277297"></path><path d="M751.4 366L761.4 256L661.9 354Z" fill="#081a28" stroke="#081a28"></path><path d="M114.6 114L120.6 224L242.1 139Z" fill="#277297" stroke="#277297"></path><path d="M242.1 139L120.6 224L247.1 225Z" fill="#1d4e6b" stroke="#1d4e6b"></path><path d="M116.6 600L270.1 600L265.1 474Z" fill="#00101c" stroke="#00101c"></path><path d="M761.4 256L763.4 133L650.9 137Z" fill="#277297" stroke="#277297"></path><path d="M650.9 137L647.9 0L525.3 124Z" fill="#246688" stroke="#246688"></path><path d="M521.3 600L659.9 600L655.9 499Z" fill="#0c2435" stroke="#0c2435"></path><path d="M655.9 499L778.4 497L751.4 366Z" fill="#297ea6" stroke="#297ea6"></path><path d="M763.4 133L647.9 0L650.9 137Z" fill="#0c2435" stroke="#0c2435"></path><path d="M0 342L113.6 463L136.6 356Z" fill="#246688" stroke="#246688"></path><path d="M136.6 356L113.6 463L245.1 379Z" fill="#081a28" stroke="#081a28"></path><path d="M385.7 0L238.1 0L379.7 102Z" fill="#15384f" stroke="#15384f"></path><path d="M770.4 600L778.4 497L655.9 499Z" fill="#277297" stroke="#277297"></path><path d="M751.4 366L900 350L761.4 256Z" fill="#205a7a" stroke="#205a7a"></path><path d="M761.4 256L900 230L763.4 133Z" fill="#205a7a" stroke="#205a7a"></path><path d="M238.1 0L114.6 114L242.1 139Z" fill="#112e42" stroke="#112e42"></path><path d="M120.6 224L0 342L136.6 356Z" fill="#277297" stroke="#277297"></path><path d="M659.9 600L770.4 600L655.9 499Z" fill="#15384f" stroke="#15384f"></path><path d="M113.6 463L116.6 600L265.1 474Z" fill="#112e42" stroke="#112e42"></path><path d="M238.1 0L127.6 0L114.6 114Z" fill="#297ea6" stroke="#297ea6"></path><path d="M0 250L0 342L120.6 224Z" fill="#205a7a" stroke="#205a7a"></path><path d="M113.6 463L0 472L116.6 600Z" fill="#205a7a" stroke="#205a7a"></path><path d="M0 250L120.6 224L0 117Z" fill="#15384f" stroke="#15384f"></path><path d="M0 117L120.6 224L114.6 114Z" fill="#277297" stroke="#277297"></path><path d="M900 486L900 350L778.4 497Z" fill="#297ea6" stroke="#297ea6"></path><path d="M778.4 497L900 350L751.4 366Z" fill="#0c2435" stroke="#0c2435"></path><path d="M900 102L787.4 0L763.4 133Z" fill="#205a7a" stroke="#205a7a"></path><path d="M763.4 133L787.4 0L647.9 0Z" fill="#246688" stroke="#246688"></path><path d="M900 350L900 230L761.4 256Z" fill="#112e42" stroke="#112e42"></path><path d="M0 342L0 472L113.6 463Z" fill="#19435d" stroke="#19435d"></path><path d="M900 600L900 486L778.4 497Z" fill="#246688" stroke="#246688"></path><path d="M0 0L0 117L114.6 114Z" fill="#0c2435" stroke="#0c2435"></path><path d="M900 230L900 102L763.4 133Z" fill="#081a28" stroke="#081a28"></path><path d="M0 472L0 600L116.6 600Z" fill="#297ea6" stroke="#297ea6"></path><path d="M770.4 600L900 600L778.4 497Z" fill="#205a7a" stroke="#205a7a"></path><path d="M127.6 0L0 0L114.6 114Z" fill="#205a7a" stroke="#205a7a"></path><path d="M900 102L900 0L787.4 0Z" fill="#205a7a" stroke="#205a7a"></path></g></svg>