<svg id="visual" viewBox="0 0 900 600" width="900" height="600" xmlns="http://www.w3.org/2000/svg" xmlns:xlink="http://www.w3.org/1999/xlink" version="1.1"><rect width="900" height="600" fill="#47609b"></rect><g><g transform="translate(648 122)"><path d="M0 -74.3L64.4 -37.2L64.4 37.2L0 74.3L-64.4 37.2L-64.4 -37.2Z" fill="#192bb0"></path></g><g transform="translate(505 233)"><path d="M0 -37L32 -18.5L32 18.5L0 37L-32 18.5L-32 -18.5Z" fill="#192bb0"></path></g><g transform="translate(693 363)"><path d="M0 -69L59.8 -34.5L59.8 34.5L0 69L-59.8 34.5L-59.8 -34.5Z" fill="#192bb0"></path></g><g transform="translate(71 307)"><path d="M0 -51L44.2 -25.5L44.2 25.5L0 51L-44.2 25.5L-44.2 -25.5Z" fill="#192bb0"></path></g><g transform="translate(823 88)"><path d="M0 -57L49.4 -28.5L49.4 28.5L0 57L-49.4 28.5L-49.4 -28.5Z" fill="#192bb0"></path></g><g transform="translate(170 598)"><path d="M0 -28L24.2 -14L24.2 14L0 28L-24.2 14L-24.2 -14Z" fill="#192bb0"></path></g><g transform="translate(14 152)"><path d="M0 -55L47.6 -27.5L47.6 27.5L0 55L-47.6 27.5L-47.6 -27.5Z" fill="#192bb0"></path></g><g transform="translate(290 77)"><path d="M0 -66L57.2 -33L57.2 33L0 66L-57.2 33L-57.2 -33Z" fill="#192bb0"></path></g><g transform="translate(413 482)"><path d="M0 -50L43.3 -25L43.3 25L0 50L-43.3 25L-43.3 -25Z" fill="#192bb0"></path></g><g transform="translate(173 191)"><path d="M0 -27L23.4 -13.5L23.4 13.5L0 27L-23.4 13.5L-23.4 -13.5Z" fill="#192bb0"></path></g><g transform="translate(570 555)"><path d="M0 -57L49.4 -28.5L49.4 28.5L0 57L-49.4 28.5L-49.4 -28.5Z" fill="#192bb0"></path></g><g transform="translate(828 592)"><path d="M0 -66L57.2 -33L57.2 33L0 66L-57.2 33L-57.2 -33Z" fill="#192bb0"></path></g><g transform="translate(876 285)"><path d="M0 -44L38.1 -22L38.1 22L0 44L-38.1 22L-38.1 -22Z" fill="#192bb0"></path></g><g transform="translate(842 443)"><path d="M0 -30L26 -15L26 15L0 30L-26 15L-26 -15Z" fill="#192bb0"></path></g><g transform="translate(272 378)"><path d="M0 -29L25.1 -14.5L25.1 14.5L0 29L-25.1 14.5L-25.1 -14.5Z" fill="#192bb0"></path></g><g transform="translate(2 572)"><path d="M0 -35L30.3 -17.5L30.3 17.5L0 35L-30.3 17.5L-30.3 -17.5Z" fill="#192bb0"></path></g></g></svg>