<svg id="visual" viewBox="0 0 960 540" width="960" height="540" xmlns="http://www.w3.org/2000/svg" xmlns:xlink="http://www.w3.org/1999/xlink" version="1.1"><path d="M0 141L16 142C32 143 64 145 96 145C128 145 160 143 192 152.8C224 162.7 256 184.3 288 187.2C320 190 352 174 384 173.2C416 172.3 448 186.7 480 180.3C512 174 544 147 576 137C608 127 640 134 672 136.7C704 139.3 736 137.7 768 143.2C800 148.7 832 161.3 864 156.8C896 152.3 928 130.7 944 119.8L960 109L960 0L944 0C928 0 896 0 864 0C832 0 800 0 768 0C736 0 704 0 672 0C640 0 608 0 576 0C544 0 512 0 480 0C448 0 416 0 384 0C352 0 320 0 288 0C256 0 224 0 192 0C160 0 128 0 96 0C64 0 32 0 16 0L0 0Z" fill="#4e50ad"></path><path d="M0 206L16 207C32 208 64 210 96 208.2C128 206.3 160 200.7 192 207.8C224 215 256 235 288 236C320 237 352 219 384 223.5C416 228 448 255 480 252.3C512 249.7 544 217.3 576 202.8C608 188.3 640 191.7 672 190.7C704 189.7 736 184.3 768 188.8C800 193.3 832 207.7 864 208.7C896 209.7 928 197.3 944 191.2L960 185L960 107L944 117.8C928 128.7 896 150.3 864 154.8C832 159.3 800 146.7 768 141.2C736 135.7 704 137.3 672 134.7C640 132 608 125 576 135C544 145 512 172 480 178.3C448 184.7 416 170.3 384 171.2C352 172 320 188 288 185.2C256 182.3 224 160.7 192 150.8C160 141 128 143 96 143C64 143 32 141 16 140L0 139Z" fill="#172583"></path><path d="M0 401L16 393.7C32 386.3 64 371.7 96 362.7C128 353.7 160 350.3 192 353.2C224 356 256 365 288 368.5C320 372 352 370 384 377.2C416 384.3 448 400.7 480 401.7C512 402.7 544 388.3 576 382C608 375.7 640 377.3 672 372.8C704 368.3 736 357.7 768 348.7C800 339.7 832 332.3 864 336.8C896 341.3 928 357.7 944 365.8L960 374L960 183L944 189.2C928 195.3 896 207.7 864 206.7C832 205.7 800 191.3 768 186.8C736 182.3 704 187.7 672 188.7C640 189.7 608 186.3 576 200.8C544 215.3 512 247.7 480 250.3C448 253 416 226 384 221.5C352 217 320 235 288 234C256 233 224 213 192 205.8C160 198.7 128 204.3 96 206.2C64 208 32 206 16 205L0 204Z" fill="#092068"></path><path d="M0 471L16 464.7C32 458.3 64 445.7 96 441.2C128 436.7 160 440.3 192 443C224 445.7 256 447.3 288 449.2C320 451 352 453 384 457.5C416 462 448 469 480 469C512 469 544 462 576 461.2C608 460.3 640 465.7 672 459.3C704 453 736 435 768 426.8C800 418.7 832 420.3 864 424.8C896 429.3 928 436.7 944 440.3L960 444L960 372L944 363.8C928 355.7 896 339.3 864 334.8C832 330.3 800 337.7 768 346.7C736 355.7 704 366.3 672 370.8C640 375.3 608 373.7 576 380C544 386.3 512 400.7 480 399.7C448 398.7 416 382.3 384 375.2C352 368 320 370 288 366.5C256 363 224 354 192 351.2C160 348.3 128 351.7 96 360.7C64 369.7 32 384.3 16 391.7L0 399Z" fill="#172583"></path><path d="M0 541L16 541C32 541 64 541 96 541C128 541 160 541 192 541C224 541 256 541 288 541C320 541 352 541 384 541C416 541 448 541 480 541C512 541 544 541 576 541C608 541 640 541 672 541C704 541 736 541 768 541C800 541 832 541 864 541C896 541 928 541 944 541L960 541L960 442L944 438.3C928 434.7 896 427.3 864 422.8C832 418.3 800 416.7 768 424.8C736 433 704 451 672 457.3C640 463.7 608 458.3 576 459.2C544 460 512 467 480 467C448 467 416 460 384 455.5C352 451 320 449 288 447.2C256 445.3 224 443.7 192 441C160 438.3 128 434.7 96 439.2C64 443.7 32 456.3 16 462.7L0 469Z" fill="#4e50ad"></path></svg>