<svg id="visual" viewBox="0 0 900 600" width="900" height="600" xmlns="http://www.w3.org/2000/svg" xmlns:xlink="http://www.w3.org/1999/xlink" version="1.1"><rect x="0" y="0" width="900" height="600" fill="#135e97"></rect><path d="M0 272L21.5 277.5C43 283 86 294 128.8 301.8C171.7 309.7 214.3 314.3 257.2 323.2C300 332 343 345 385.8 338.8C428.7 332.7 471.3 307.3 514.2 288.8C557 270.3 600 258.7 642.8 264.3C685.7 270 728.3 293 771.2 294.8C814 296.7 857 277.3 878.5 267.7L900 258L900 0L878.5 0C857 0 814 0 771.2 0C728.3 0 685.7 0 642.8 0C600 0 557 0 514.2 0C471.3 0 428.7 0 385.8 0C343 0 300 0 257.2 0C214.3 0 171.7 0 128.8 0C86 0 43 0 21.5 0L0 0Z" fill="#326dc8"></path><path d="M0 238L21.5 245.8C43 253.7 86 269.3 128.8 270.2C171.7 271 214.3 257 257.2 262.8C300 268.7 343 294.3 385.8 300.8C428.7 307.3 471.3 294.7 514.2 285.7C557 276.7 600 271.3 642.8 278.3C685.7 285.3 728.3 304.7 771.2 311.5C814 318.3 857 312.7 878.5 309.8L900 307L900 0L878.5 0C857 0 814 0 771.2 0C728.3 0 685.7 0 642.8 0C600 0 557 0 514.2 0C471.3 0 428.7 0 385.8 0C343 0 300 0 257.2 0C214.3 0 171.7 0 128.8 0C86 0 43 0 21.5 0L0 0Z" fill="#2e67c2"></path><path d="M0 278L21.5 271.8C43 265.7 86 253.3 128.8 243.8C171.7 234.3 214.3 227.7 257.2 234.5C300 241.3 343 261.7 385.8 258.3C428.7 255 471.3 228 514.2 217.3C557 206.7 600 212.3 642.8 221.7C685.7 231 728.3 244 771.2 249.5C814 255 857 253 878.5 252L900 251L900 0L878.5 0C857 0 814 0 771.2 0C728.3 0 685.7 0 642.8 0C600 0 557 0 514.2 0C471.3 0 428.7 0 385.8 0C343 0 300 0 257.2 0C214.3 0 171.7 0 128.8 0C86 0 43 0 21.5 0L0 0Z" fill="#2b60bd"></path><path d="M0 202L21.5 207.5C43 213 86 224 128.8 222C171.7 220 214.3 205 257.2 209.8C300 214.7 343 239.3 385.8 247.3C428.7 255.3 471.3 246.7 514.2 240.2C557 233.7 600 229.3 642.8 226.3C685.7 223.3 728.3 221.7 771.2 223.2C814 224.7 857 229.3 878.5 231.7L900 234L900 0L878.5 0C857 0 814 0 771.2 0C728.3 0 685.7 0 642.8 0C600 0 557 0 514.2 0C471.3 0 428.7 0 385.8 0C343 0 300 0 257.2 0C214.3 0 171.7 0 128.8 0C86 0 43 0 21.5 0L0 0Z" fill="#275ab7"></path><path d="M0 196L21.5 195.7C43 195.3 86 194.7 128.8 190.7C171.7 186.7 214.3 179.3 257.2 177.7C300 176 343 180 385.8 185.3C428.7 190.7 471.3 197.3 514.2 206.2C557 215 600 226 642.8 230.5C685.7 235 728.3 233 771.2 231.3C814 229.7 857 228.3 878.5 227.7L900 227L900 0L878.5 0C857 0 814 0 771.2 0C728.3 0 685.7 0 642.8 0C600 0 557 0 514.2 0C471.3 0 428.7 0 385.8 0C343 0 300 0 257.2 0C214.3 0 171.7 0 128.8 0C86 0 43 0 21.5 0L0 0Z" fill="#2453b2"></path><path d="M0 186L21.5 179.7C43 173.3 86 160.7 128.8 154.7C171.7 148.7 214.3 149.3 257.2 160.3C300 171.3 343 192.7 385.8 197.7C428.7 202.7 471.3 191.3 514.2 180.2C557 169 600 158 642.8 151.7C685.7 145.3 728.3 143.7 771.2 147.7C814 151.7 857 161.3 878.5 166.2L900 171L900 0L878.5 0C857 0 814 0 771.2 0C728.3 0 685.7 0 642.8 0C600 0 557 0 514.2 0C471.3 0 428.7 0 385.8 0C343 0 300 0 257.2 0C214.3 0 171.7 0 128.8 0C86 0 43 0 21.5 0L0 0Z" fill="#214dac"></path><path d="M0 173L21.5 169.3C43 165.7 86 158.3 128.8 153.8C171.7 149.3 214.3 147.7 257.2 151.7C300 155.7 343 165.3 385.8 163.8C428.7 162.3 471.3 149.7 514.2 142C557 134.3 600 131.7 642.8 139.5C685.7 147.3 728.3 165.7 771.2 170.5C814 175.3 857 166.7 878.5 162.3L900 158L900 0L878.5 0C857 0 814 0 771.2 0C728.3 0 685.7 0 642.8 0C600 0 557 0 514.2 0C471.3 0 428.7 0 385.8 0C343 0 300 0 257.2 0C214.3 0 171.7 0 128.8 0C86 0 43 0 21.5 0L0 0Z" fill="#1f47a6"></path><path d="M0 139L21.5 139C43 139 86 139 128.8 139C171.7 139 214.3 139 257.2 140C300 141 343 143 385.8 137.2C428.7 131.3 471.3 117.7 514.2 116.8C557 116 600 128 642.8 136.8C685.7 145.7 728.3 151.3 771.2 151.8C814 152.3 857 147.7 878.5 145.3L900 143L900 0L878.5 0C857 0 814 0 771.2 0C728.3 0 685.7 0 642.8 0C600 0 557 0 514.2 0C471.3 0 428.7 0 385.8 0C343 0 300 0 257.2 0C214.3 0 171.7 0 128.8 0C86 0 43 0 21.5 0L0 0Z" fill="#1c41a0"></path><path d="M0 83L21.5 88C43 93 86 103 128.8 105.8C171.7 108.7 214.3 104.3 257.2 99.8C300 95.3 343 90.7 385.8 92.2C428.7 93.7 471.3 101.3 514.2 106.3C557 111.3 600 113.7 642.8 109.2C685.7 104.7 728.3 93.3 771.2 90.7C814 88 857 94 878.5 97L900 100L900 0L878.5 0C857 0 814 0 771.2 0C728.3 0 685.7 0 642.8 0C600 0 557 0 514.2 0C471.3 0 428.7 0 385.8 0C343 0 300 0 257.2 0C214.3 0 171.7 0 128.8 0C86 0 43 0 21.5 0L0 0Z" fill="#1a3b9a"></path><path d="M0 101L21.5 99C43 97 86 93 128.8 93.5C171.7 94 214.3 99 257.2 95.7C300 92.3 343 80.7 385.8 74.8C428.7 69 471.3 69 514.2 67.2C557 65.3 600 61.7 642.8 67.3C685.7 73 728.3 88 771.2 92.2C814 96.3 857 89.7 878.5 86.3L900 83L900 0L878.5 0C857 0 814 0 771.2 0C728.3 0 685.7 0 642.8 0C600 0 557 0 514.2 0C471.3 0 428.7 0 385.8 0C343 0 300 0 257.2 0C214.3 0 171.7 0 128.8 0C86 0 43 0 21.5 0L0 0Z" fill="#173494"></path><path d="M0 41L21.5 44.8C43 48.7 86 56.3 128.8 61.7C171.7 67 214.3 70 257.2 71.7C300 73.3 343 73.7 385.8 69.7C428.7 65.7 471.3 57.3 514.2 54C557 50.7 600 52.3 642.8 51.7C685.7 51 728.3 48 771.2 49.8C814 51.7 857 58.3 878.5 61.7L900 65L900 0L878.5 0C857 0 814 0 771.2 0C728.3 0 685.7 0 642.8 0C600 0 557 0 514.2 0C471.3 0 428.7 0 385.8 0C343 0 300 0 257.2 0C214.3 0 171.7 0 128.8 0C86 0 43 0 21.5 0L0 0Z" fill="#152e8e"></path><path d="M0 16L21.5 20.8C43 25.7 86 35.3 128.8 39.3C171.7 43.3 214.3 41.7 257.2 39.5C300 37.3 343 34.7 385.8 33.3C428.7 32 471.3 32 514.2 33.5C557 35 600 38 642.8 36C685.7 34 728.3 27 771.2 27.8C814 28.7 857 37.3 878.5 41.7L900 46L900 0L878.5 0C857 0 814 0 771.2 0C728.3 0 685.7 0 642.8 0C600 0 557 0 514.2 0C471.3 0 428.7 0 385.8 0C343 0 300 0 257.2 0C214.3 0 171.7 0 128.8 0C86 0 43 0 21.5 0L0 0Z" fill="#132888"></path></svg>