<svg id="visual" viewBox="0 0 900 600" width="900" height="600" xmlns="http://www.w3.org/2000/svg" xmlns:xlink="http://www.w3.org/1999/xlink" version="1.1"><rect x="0" y="0" width="900" height="600" fill="#5026a3"></rect><path d="M735 0L695 200L657 400L765 600L0 600L0 400L0 200L0 0Z" fill="#001487"></path><path d="M641 0L651 200L595 400L600 600L0 600L0 400L0 200L0 0Z" fill="#001594"></path><path d="M600 0L497 200L594 400L581 600L0 600L0 400L0 200L0 0Z" fill="#0015a2"></path><path d="M435 0L457 200L425 400L412 600L0 600L0 400L0 200L0 0Z" fill="#0015af"></path><path d="M399 0L427 200L416 400L396 600L0 600L0 400L0 200L0 0Z" fill="#0215bd"></path><path d="M369 0L276 200L372 400L368 600L0 600L0 400L0 200L0 0Z" fill="#0714cb"></path><path d="M214 0L199 200L257 400L232 600L0 600L0 400L0 200L0 0Z" fill="#0f12d9"></path><path d="M186 0L155 200L147 400L133 600L0 600L0 400L0 200L0 0Z" fill="#170fe7"></path><path d="M78 0L99 200L89 400L126 600L0 600L0 400L0 200L0 0Z" fill="#1f0af5"></path></svg>