<svg id="visual" viewBox="0 0 900 600" width="900" height="600" xmlns="http://www.w3.org/2000/svg" xmlns:xlink="http://www.w3.org/1999/xlink" version="1.1"><rect x="0" y="0" width="900" height="600" fill="#00101C"></rect><path d="M0 331L113 331L113 313L225 313L225 311L338 311L338 333L450 333L450 312L563 312L563 325L675 325L675 314L788 314L788 329L900 329L900 310L900 0L900 0L788 0L788 0L675 0L675 0L563 0L563 0L450 0L450 0L338 0L338 0L225 0L225 0L113 0L113 0L0 0Z" fill="#174162"></path><path d="M0 277L113 277L113 277L225 277L225 284L338 284L338 292L450 292L450 291L563 291L563 288L675 288L675 275L788 275L788 275L900 275L900 296L900 0L900 0L788 0L788 0L675 0L675 0L563 0L563 0L450 0L450 0L338 0L338 0L225 0L225 0L113 0L113 0L0 0Z" fill="#1a486a"></path><path d="M0 255L113 255L113 251L225 251L225 250L338 250L338 253L450 253L450 253L563 253L563 248L675 248L675 239L788 239L788 253L900 253L900 265L900 0L900 0L788 0L788 0L675 0L675 0L563 0L563 0L450 0L450 0L338 0L338 0L225 0L225 0L113 0L113 0L0 0Z" fill="#1c5073"></path><path d="M0 226L113 226L113 204L225 204L225 215L338 215L338 221L450 221L450 205L563 205L563 222L675 222L675 222L788 222L788 221L900 221L900 202L900 0L900 0L788 0L788 0L675 0L675 0L563 0L563 0L450 0L450 0L338 0L338 0L225 0L225 0L113 0L113 0L0 0Z" fill="#1f577b"></path><path d="M0 169L113 169L113 187L225 187L225 186L338 186L338 186L450 186L450 168L563 168L563 178L675 178L675 170L788 170L788 179L900 179L900 183L900 0L900 0L788 0L788 0L675 0L675 0L563 0L563 0L450 0L450 0L338 0L338 0L225 0L225 0L113 0L113 0L0 0Z" fill="#215f84"></path><path d="M0 142L113 142L113 157L225 157L225 147L338 147L338 132L450 132L450 148L563 148L563 152L675 152L675 152L788 152L788 150L900 150L900 156L900 0L900 0L788 0L788 0L675 0L675 0L563 0L563 0L450 0L450 0L338 0L338 0L225 0L225 0L113 0L113 0L0 0Z" fill="#23678c"></path><path d="M0 96L113 96L113 103L225 103L225 107L338 107L338 117L450 117L450 101L563 101L563 114L675 114L675 112L788 112L788 118L900 118L900 101L900 0L900 0L788 0L788 0L675 0L675 0L563 0L563 0L450 0L450 0L338 0L338 0L225 0L225 0L113 0L113 0L0 0Z" fill="#256e95"></path><path d="M0 82L113 82L113 84L225 84L225 60L338 60L338 66L450 66L450 78L563 78L563 77L675 77L675 80L788 80L788 68L900 68L900 82L900 0L900 0L788 0L788 0L675 0L675 0L563 0L563 0L450 0L450 0L338 0L338 0L225 0L225 0L113 0L113 0L0 0Z" fill="#27769e"></path><path d="M0 29L113 29L113 23L225 23L225 36L338 36L338 28L450 28L450 37L563 37L563 38L675 38L675 41L788 41L788 34L900 34L900 30L900 0L900 0L788 0L788 0L675 0L675 0L563 0L563 0L450 0L450 0L338 0L338 0L225 0L225 0L113 0L113 0L0 0Z" fill="#297ea6"></path></svg>