<svg id="visual" viewBox="0 0 900 600" width="900" height="600" xmlns="http://www.w3.org/2000/svg" xmlns:xlink="http://www.w3.org/1999/xlink" version="1.1"><rect x="0" y="0" width="900" height="600" fill="#001220"></rect><defs><linearGradient id="grad1_0" x1="33.3%" y1="0%" x2="100%" y2="100%"><stop offset="20%" stop-color="#1a146d" stop-opacity="1"></stop><stop offset="80%" stop-color="#1a146d" stop-opacity="1"></stop></linearGradient></defs><defs><linearGradient id="grad1_1" x1="33.3%" y1="0%" x2="100%" y2="100%"><stop offset="20%" stop-color="#1a146d" stop-opacity="1"></stop><stop offset="80%" stop-color="#001965" stop-opacity="1"></stop></linearGradient></defs><defs><linearGradient id="grad1_2" x1="33.3%" y1="0%" x2="100%" y2="100%"><stop offset="20%" stop-color="#001b5b" stop-opacity="1"></stop><stop offset="80%" stop-color="#001965" stop-opacity="1"></stop></linearGradient></defs><defs><linearGradient id="grad1_3" x1="33.3%" y1="0%" x2="100%" y2="100%"><stop offset="20%" stop-color="#001b5b" stop-opacity="1"></stop><stop offset="80%" stop-color="#001b50" stop-opacity="1"></stop></linearGradient></defs><defs><linearGradient id="grad1_4" x1="33.3%" y1="0%" x2="100%" y2="100%"><stop offset="20%" stop-color="#001a45" stop-opacity="1"></stop><stop offset="80%" stop-color="#001b50" stop-opacity="1"></stop></linearGradient></defs><defs><linearGradient id="grad1_5" x1="33.3%" y1="0%" x2="100%" y2="100%"><stop offset="20%" stop-color="#001a45" stop-opacity="1"></stop><stop offset="80%" stop-color="#001838" stop-opacity="1"></stop></linearGradient></defs><defs><linearGradient id="grad1_6" x1="33.3%" y1="0%" x2="100%" y2="100%"><stop offset="20%" stop-color="#00152c" stop-opacity="1"></stop><stop offset="80%" stop-color="#001838" stop-opacity="1"></stop></linearGradient></defs><defs><linearGradient id="grad1_7" x1="33.3%" y1="0%" x2="100%" y2="100%"><stop offset="20%" stop-color="#00152c" stop-opacity="1"></stop><stop offset="80%" stop-color="#001220" stop-opacity="1"></stop></linearGradient></defs><defs><linearGradient id="grad2_0" x1="0%" y1="0%" x2="66.7%" y2="100%"><stop offset="20%" stop-color="#1a146d" stop-opacity="1"></stop><stop offset="80%" stop-color="#1a146d" stop-opacity="1"></stop></linearGradient></defs><defs><linearGradient id="grad2_1" x1="0%" y1="0%" x2="66.7%" y2="100%"><stop offset="20%" stop-color="#001965" stop-opacity="1"></stop><stop offset="80%" stop-color="#1a146d" stop-opacity="1"></stop></linearGradient></defs><defs><linearGradient id="grad2_2" x1="0%" y1="0%" x2="66.7%" y2="100%"><stop offset="20%" stop-color="#001965" stop-opacity="1"></stop><stop offset="80%" stop-color="#001b5b" stop-opacity="1"></stop></linearGradient></defs><defs><linearGradient id="grad2_3" x1="0%" y1="0%" x2="66.7%" y2="100%"><stop offset="20%" stop-color="#001b50" stop-opacity="1"></stop><stop offset="80%" stop-color="#001b5b" stop-opacity="1"></stop></linearGradient></defs><defs><linearGradient id="grad2_4" x1="0%" y1="0%" x2="66.7%" y2="100%"><stop offset="20%" stop-color="#001b50" stop-opacity="1"></stop><stop offset="80%" stop-color="#001a45" stop-opacity="1"></stop></linearGradient></defs><defs><linearGradient id="grad2_5" x1="0%" y1="0%" x2="66.7%" y2="100%"><stop offset="20%" stop-color="#001838" stop-opacity="1"></stop><stop offset="80%" stop-color="#001a45" stop-opacity="1"></stop></linearGradient></defs><defs><linearGradient id="grad2_6" x1="0%" y1="0%" x2="66.7%" y2="100%"><stop offset="20%" stop-color="#001838" stop-opacity="1"></stop><stop offset="80%" stop-color="#00152c" stop-opacity="1"></stop></linearGradient></defs><defs><linearGradient id="grad2_7" x1="0%" y1="0%" x2="66.7%" y2="100%"><stop offset="20%" stop-color="#001220" stop-opacity="1"></stop><stop offset="80%" stop-color="#00152c" stop-opacity="1"></stop></linearGradient></defs><g transform="translate(900, 0)"><path d="M0 540.8C-70.2 528.4 -140.5 515.9 -202.1 487.8C-263.6 459.7 -316.5 416.1 -368.4 368.4C-420.3 320.7 -471.1 269 -499.7 207C-528.2 144.9 -534.5 72.4 -540.8 0L0 0Z" fill="#001426"></path><path d="M0 473.2C-61.5 462.3 -122.9 451.4 -176.8 426.8C-230.7 402.3 -277 364.1 -322.4 322.4C-367.7 280.6 -412.2 235.4 -437.2 181.1C-462.2 126.8 -467.7 63.4 -473.2 0L0 0Z" fill="#001732"></path><path d="M0 405.6C-52.7 396.3 -105.4 386.9 -151.5 365.9C-197.7 344.8 -237.4 312.1 -276.3 276.3C-315.2 240.5 -353.3 201.8 -374.7 155.2C-396.2 108.7 -400.9 54.3 -405.6 0L0 0Z" fill="#00193f"></path><path d="M0 338C-43.9 330.2 -87.8 322.4 -126.3 304.9C-164.8 287.3 -197.8 260 -230.3 230.3C-262.7 200.5 -294.4 168.1 -312.3 129.4C-330.1 90.6 -334.1 45.3 -338 0L0 0Z" fill="#001b4b"></path><path d="M0 270.4C-35.1 264.2 -70.2 257.9 -101 243.9C-131.8 229.9 -158.3 208 -184.2 184.2C-210.1 160.4 -235.5 134.5 -249.8 103.5C-264.1 72.4 -267.3 36.2 -270.4 0L0 0Z" fill="#001b56"></path><path d="M0 202.8C-26.3 198.1 -52.7 193.5 -75.8 182.9C-98.9 172.4 -118.7 156 -138.2 138.2C-157.6 120.3 -176.7 100.9 -187.4 77.6C-198.1 54.3 -200.4 27.2 -202.8 0L0 0Z" fill="#001a60"></path><path d="M0 135.2C-17.6 132.1 -35.1 129 -50.5 122C-65.9 114.9 -79.1 104 -92.1 92.1C-105.1 80.2 -117.8 67.3 -124.9 51.7C-132.1 36.2 -133.6 18.1 -135.2 0L0 0Z" fill="#0b1769"></path><path d="M0 67.6C-8.8 66 -17.6 64.5 -25.3 61C-33 57.5 -39.6 52 -46.1 46.1C-52.5 40.1 -58.9 33.6 -62.5 25.9C-66 18.1 -66.8 9.1 -67.6 0L0 0Z" fill="#1a146d"></path></g><g transform="translate(0, 600)"><path d="M0 -540.8C66.7 -521.6 133.3 -502.4 197.8 -477.6C262.3 -452.9 324.7 -422.7 377.6 -377.6C430.5 -332.5 474 -272.4 499.7 -207C525.3 -141.5 533.1 -70.8 540.8 0L0 0Z" fill="#001426"></path><path d="M0 -473.2C58.3 -456.4 116.7 -439.6 173.1 -417.9C229.6 -396.3 284.1 -369.9 330.4 -330.4C376.7 -290.9 414.8 -238.3 437.2 -181.1C459.6 -123.9 466.4 -61.9 473.2 0L0 0Z" fill="#001732"></path><path d="M0 -405.6C50 -391.2 100 -376.8 148.4 -358.2C196.8 -339.7 243.5 -317 283.2 -283.2C322.9 -249.3 355.5 -204.3 374.7 -155.2C394 -106.2 399.8 -53.1 405.6 0L0 0Z" fill="#00193f"></path><path d="M0 -338C41.7 -326 83.3 -314 123.7 -298.5C164 -283.1 202.9 -264.2 236 -236C269.1 -207.8 296.3 -170.2 312.3 -129.4C328.3 -88.5 333.2 -44.2 338 0L0 0Z" fill="#001b4b"></path><path d="M0 -270.4C33.3 -260.8 66.7 -251.2 98.9 -238.8C131.2 -226.5 162.3 -211.4 188.8 -188.8C215.3 -166.2 237 -136.2 249.8 -103.5C262.7 -70.8 266.5 -35.4 270.4 0L0 0Z" fill="#001b56"></path><path d="M0 -202.8C25 -195.6 50 -188.4 74.2 -179.1C98.4 -169.8 121.8 -158.5 141.6 -141.6C161.4 -124.7 177.8 -102.1 187.4 -77.6C197 -53.1 199.9 -26.5 202.8 0L0 0Z" fill="#001a60"></path><path d="M0 -135.2C16.7 -130.4 33.3 -125.6 49.5 -119.4C65.6 -113.2 81.2 -105.7 94.4 -94.4C107.6 -83.1 118.5 -68.1 124.9 -51.7C131.3 -35.4 133.3 -17.7 135.2 0L0 0Z" fill="#0b1769"></path><path d="M0 -67.6C8.3 -65.2 16.7 -62.8 24.7 -59.7C32.8 -56.6 40.6 -52.8 47.2 -47.2C53.8 -41.6 59.3 -34 62.5 -25.9C65.7 -17.7 66.6 -8.8 67.6 0L0 0Z" fill="#1a146d"></path></g></svg>